# xmcd CD database file
#
# Track frame offsets:
#	150
#	19846
#	32760
#	48779
#	65872
#	84679
#	100136
#	113890
#	134478
#
# Disc length: 1928 seconds
#
# Revision: 0
# Processed by: cddbd v1.5.1PL2 Copyright (c) Steve Scherf et al.
# Submitted via: ACXtractor (MTCDDB.DLL V2003.12.21)
#
DISCID=79078609
DTITLE=Texas Lightning - WWW TEXASLIGHTNING
DYEAR=2006
DGENRE=Country
TTITLE0=Blue Bayou
TTITLE1=Cest la vie
TTITLE2=Dancing Queen
TTITLE3=Highway to Hell
TTITLE4=Kiss
TTITLE5=Like A Virgin
TTITLE6=No no never
TTITLE7=Over The Mountains
TTITLE8=Walkin after Midnight
EXTD=ID3G:   2 YEAR: 2006
EXTT0=
EXTT1=
EXTT2=
EXTT3=
EXTT4=
EXTT5=
EXTT6=
EXTT7=
EXTT8=
PLAYORDER=
